<svg xmlns="http://www.w3.org/2000/svg" width="48" height="48" viewBox="0 0 48 48" fill="none">
  <defs>
    <linearGradient id="claro-bg-48" x1="7" y1="6" x2="40" y2="42" gradientUnits="userSpaceOnUse">
      <stop stop-color="#3B82F6" />
      <stop offset="0.58" stop-color="#2563EB" />
      <stop offset="1" stop-color="#1E3A8A" />
    </linearGradient>
    <linearGradient id="claro-glow-48" x1="31" y1="10" x2="39" y2="18" gradientUnits="userSpaceOnUse">
      <stop stop-color="#FCD34D" />
      <stop offset="1" stop-color="#F59E0B" />
    </linearGradient>
  </defs>
  <rect x="2" y="2" width="44" height="44" rx="14" fill="#E0F2FE" />
  <rect x="6" y="6" width="36" height="36" rx="12" fill="url(#claro-bg-48)" />
  <path d="M30.5 16.6A10.8 10.8 0 0 0 24 14.4c-5.3 0-9.6 4.3-9.6 9.6s4.3 9.6 9.6 9.6c2.5 0 4.8-.9 6.5-2.3" stroke="#FFFFFF" stroke-width="4.8" stroke-linecap="round"/>
  <path d="m33.2 11.5 1.2 2.6 2.8.4-2 2 .5 2.8-2.5-1.4-2.5 1.4.5-2.8-2-2 2.8-.4 1.2-2.6Z" fill="url(#claro-glow-48)"/>
</svg>
