<svg xmlns="http://www.w3.org/2000/svg" width="192" height="192" viewBox="0 0 192 192" fill="none">
  <defs>
    <linearGradient id="claro-bg-192" x1="28" y1="24" x2="164" y2="172" gradientUnits="userSpaceOnUse">
      <stop stop-color="#60A5FA" />
      <stop offset="0.58" stop-color="#2563EB" />
      <stop offset="1" stop-color="#1E3A8A" />
    </linearGradient>
    <linearGradient id="claro-glow-192" x1="124" y1="37" x2="154" y2="67" gradientUnits="userSpaceOnUse">
      <stop stop-color="#FCD34D" />
      <stop offset="1" stop-color="#F59E0B" />
    </linearGradient>
  </defs>
  <rect width="192" height="192" rx="52" fill="#E0F2FE" />
  <rect x="20" y="20" width="152" height="152" rx="44" fill="url(#claro-bg-192)" />
  <path d="M122 66.5A46.2 46.2 0 0 0 96 58.8c-20.5 0-37.2 16.7-37.2 37.2S75.5 133.2 96 133.2c10 0 19-3.7 26-9.4" stroke="#FFFFFF" stroke-width="17" stroke-linecap="round"/>
  <path d="m133.4 40.6 5.3 11.3 12.4 1.8-8.9 8.7 2.1 12.3-11-6-11 6 2.1-12.3-8.9-8.7 12.4-1.8 5.5-11.3Z" fill="url(#claro-glow-192)"/>
</svg>
