<svg xmlns="http://www.w3.org/2000/svg" width="512" height="512" viewBox="0 0 512 512" fill="none">
  <defs>
    <linearGradient id="claro-bg-512" x1="76" y1="68" x2="436" y2="456" gradientUnits="userSpaceOnUse">
      <stop stop-color="#60A5FA" />
      <stop offset="0.58" stop-color="#2563EB" />
      <stop offset="1" stop-color="#1E3A8A" />
    </linearGradient>
    <linearGradient id="claro-glow-512" x1="334" y1="96" x2="418" y2="180" gradientUnits="userSpaceOnUse">
      <stop stop-color="#FCD34D" />
      <stop offset="1" stop-color="#F59E0B" />
    </linearGradient>
  </defs>
  <rect width="512" height="512" rx="140" fill="#E0F2FE" />
  <rect x="54" y="54" width="404" height="404" rx="116" fill="url(#claro-bg-512)" />
  <path d="M326.8 179.4A122.4 122.4 0 0 0 256 158c-54.1 0-98 43.9-98 98s43.9 98 98 98c27.1 0 51.1-10.2 69.5-25.9" stroke="#FFFFFF" stroke-width="44" stroke-linecap="round"/>
  <path d="m352 102 14.7 31.1 34.2 5-24.5 24 5.8 33.6-30.2-16.5-30.2 16.5 5.8-33.6-24.5-24 34.2-5L352 102Z" fill="url(#claro-glow-512)"/>
</svg>
